<svg version="1.1" id="Layer_1" xmlns="http://www.w3.org/2000/svg" xmlns:xlink="http://www.w3.org/1999/xlink" x="0px" y="0px"
	 width="100%" viewBox="0 0 1536 1024" enable-background="new 0 0 1536 1024" xml:space="preserve">
<path fill="#E3E6EA" opacity="1.000000" stroke="none" 
	d="
M1126.000000,1025.000000 
	C750.666687,1025.000000 375.833344,1025.000000 1.000000,1025.000000 
	C1.000000,683.666687 1.000000,342.333344 1.000000,1.000000 
	C513.000000,1.000000 1025.000000,1.000000 1537.000000,1.000000 
	C1537.000000,342.333344 1537.000000,683.666687 1537.000000,1025.000000 
	C1400.166626,1025.000000 1263.333374,1025.000000 1126.000000,1025.000000 
M472.957550,694.687561 
	C473.027161,695.109741 473.096741,695.531860 473.009399,696.828308 
	C474.392395,718.978882 480.557770,739.646057 493.033569,758.089294 
	C514.379883,789.646179 544.037476,807.706848 582.838623,811.978333 
	C583.903259,812.163208 584.967957,812.348083 586.374451,813.194092 
	C588.290771,813.462463 590.207031,813.965027 592.123413,813.965637 
	C711.686218,814.002319 831.248962,813.998047 950.811768,813.997009 
	C952.310425,813.997009 953.809021,813.990845 955.307678,813.987610 
	C955.244507,813.425232 955.181274,812.862793 954.971680,812.130005 
	C954.971680,812.130005 954.945618,811.906860 955.813293,812.024170 
	C992.186523,808.564575 1021.071411,791.894531 1042.442261,762.390564 
	C1055.903809,743.805969 1063.321533,722.901733 1065.045288,699.464722 
	C1065.125732,699.304749 1065.206299,699.144714 1066.002197,698.696777 
	C1066.333130,696.811890 1066.950317,694.927368 1066.953003,693.041931 
	C1067.008667,652.895325 1066.995483,612.748596 1066.995483,572.601929 
	C1066.995483,495.973389 1067.007324,419.344849 1066.925293,342.716370 
	C1066.923340,340.816589 1065.882446,338.917908 1065.091187,336.530273 
	C1065.016724,336.365601 1064.942383,336.200928 1064.963013,335.189514 
	C1061.681152,303.997192 1049.136353,277.386566 1025.342041,256.631622 
	C1004.931946,238.828476 981.154724,228.766052 953.505920,226.989365 
	C953.505920,226.989365 953.031677,226.838501 953.013062,226.426407 
	C953.013062,226.426407 952.998413,226.014160 952.383423,225.452484 
	C951.241516,225.302902 950.099609,225.022476 948.957703,225.022293 
	C829.362122,225.003067 709.766479,225.002335 590.170898,225.048080 
	C589.125671,225.048477 588.080627,225.691223 586.992859,226.452881 
	C586.992859,226.452881 586.942078,226.871506 586.959839,227.044724 
	C586.959839,227.044724 587.088806,227.161728 586.194763,227.035706 
	C565.302795,228.020355 545.816040,233.827484 528.254211,245.140274 
	C494.854553,266.655334 476.330139,297.292267 473.015015,337.699585 
	C472.915680,338.138794 472.816345,338.577972 472.306488,338.620697 
	C472.049988,338.419861 471.804657,338.200439 471.527588,338.033752 
	C471.471405,337.999969 471.194122,338.159882 471.189972,338.239471 
	C471.112610,339.719421 471.011536,341.200684 471.011414,342.681702 
	C471.002686,459.129730 471.002258,575.577759 471.001221,692.025757 
	C471.001221,693.582642 471.001221,695.139465 471.001221,696.696350 
	C471.274475,696.715210 471.547760,696.734009 471.821014,696.752869 
	C471.883789,695.829773 471.946533,694.906738 472.411682,694.030457 
	C472.411682,694.030457 472.815857,694.059814 472.957550,694.687561 
M583.514465,813.442688 
	C583.514465,813.442688 583.556580,813.521423 583.514465,813.442688 
z"/>
<path fill="#007A76" opacity="1.000000" stroke="none" 
	d="
M582.041138,811.796875 
	C544.037476,807.706848 514.379883,789.646179 493.033569,758.089294 
	C480.557770,739.646057 474.392395,718.978882 473.329254,696.060669 
	C473.765686,693.808472 473.984161,692.323853 473.984344,690.839294 
	C473.999359,574.678528 474.000763,458.517792 473.963318,342.357056 
	C473.962738,340.586273 473.464630,338.815582 473.198730,337.044861 
	C476.330139,297.292267 494.854553,266.655334 528.254211,245.140274 
	C545.816040,233.827484 565.302795,228.020355 586.963806,227.346893 
	C589.217468,227.771912 590.702087,227.985214 592.186707,227.985397 
	C711.013855,228.000931 829.841064,228.003387 948.668213,227.965698 
	C950.434753,227.965134 952.201172,227.450287 953.967651,227.175446 
	C981.154724,228.766052 1004.931946,238.828476 1025.342041,256.631622 
	C1049.136353,277.386566 1061.681152,303.997192 1064.664917,335.938232 
	C1064.245850,338.168274 1064.019043,339.649658 1064.018799,341.131012 
	C1064.002808,458.973083 1064.000977,576.815186 1064.038818,694.657227 
	C1064.039307,696.422424 1064.548340,698.187500 1064.820190,699.952637 
	C1063.321533,722.901733 1055.903809,743.805969 1042.442261,762.390564 
	C1021.071411,791.894531 992.186523,808.564575 955.064331,811.702332 
	C952.502869,811.253784 950.690308,811.016418 948.877808,811.016113 
	C828.533630,810.998535 708.189453,810.996399 587.845276,811.033203 
	C585.910522,811.033752 583.975830,811.531311 582.041138,811.796875 
M824.940002,383.039062 
	C821.287598,388.400543 817.570251,393.719055 813.992493,399.129852 
	C758.103577,483.652710 702.223450,568.181396 646.366699,652.725525 
	C636.737793,667.299683 627.013123,681.817810 617.740173,696.617126 
	C612.239868,705.395508 613.010132,714.961975 617.531128,723.801941 
	C621.924438,732.392151 629.919861,735.009033 639.330933,734.998718 
	C726.797363,734.903198 814.264404,734.816895 901.729919,735.121704 
	C914.346497,735.165649 922.095642,727.185303 922.574341,715.349060 
	C922.890503,707.531067 922.866211,699.684937 922.627502,691.862610 
	C922.353271,682.875977 916.615967,676.299377 908.465515,675.039185 
	C906.836243,674.787292 905.206116,674.541016 903.928284,673.779114 
	C902.260864,673.519958 900.593506,673.035278 898.925964,673.034241 
	C836.775635,672.995911 774.625305,673.020752 712.475098,672.928955 
	C710.188538,672.925598 707.903564,671.840759 705.828613,670.650024 
	C710.418884,664.323730 715.235229,658.148010 719.565247,651.648315 
	C776.495605,566.192383 833.363403,480.694733 890.230286,395.196503 
	C899.722595,380.925079 909.186951,366.634491 918.571289,352.291992 
	C927.393494,338.808624 918.578613,316.401154 898.365295,316.579071 
	C811.387817,317.344788 724.399719,316.895477 637.415527,316.906921 
	C624.948181,316.908539 617.131714,324.658417 617.033630,337.058075 
	C616.982239,343.556427 617.338501,350.073700 616.958679,356.550049 
	C616.441101,365.376648 619.778503,372.011108 627.348389,377.521393 
	C630.288147,378.346832 633.218689,379.846008 636.169189,379.886322 
	C652.980164,380.115906 669.795776,379.997437 686.609863,379.997559 
	C730.892456,379.997803 775.175049,379.968597 819.457275,380.100372 
	C821.342041,380.105957 823.222290,381.602539 824.940002,383.039062 
z"/>
<path fill="#006D67" opacity="1.000000" stroke="none" 
	d="
M582.439880,811.887634 
	C583.975830,811.531311 585.910522,811.033752 587.845276,811.033203 
	C708.189453,810.996399 828.533630,810.998535 948.877808,811.016113 
	C950.690308,811.016418 952.502869,811.253784 954.630493,811.643677 
	C954.945618,811.906860 954.971680,812.130005 954.744507,812.193359 
	C954.326904,812.320129 954.136475,812.383484 953.765625,812.344666 
	C953.585266,812.242432 953.179932,812.155029 952.969238,812.074463 
	C952.426697,811.963318 952.164368,812.083862 951.518799,812.472656 
	C949.070312,812.648560 947.074524,812.758667 945.078796,812.759216 
	C879.156555,812.777405 813.234253,812.821289 747.312012,812.782959 
	C693.552185,812.751709 639.792419,812.620117 586.032593,812.532959 
	C584.967957,812.348083 583.903259,812.163208 582.439880,811.887634 
z"/>
<path fill="#F4EEF6" opacity="1.000000" stroke="none" 
	d="
M587.035522,226.034088 
	C588.080627,225.691223 589.125671,225.048477 590.170898,225.048080 
	C709.766479,225.002335 829.362122,225.003067 948.957703,225.022293 
	C950.099609,225.022476 951.241516,225.302902 952.337097,225.734039 
	C951.186951,226.269226 950.083130,226.522858 948.514221,226.823883 
	C885.465454,226.874390 822.881714,226.891724 760.298035,226.876358 
	C702.875610,226.862274 645.453247,226.812912 587.906006,226.606140 
	C587.563416,226.242538 587.314880,226.109497 587.035522,226.034088 
z"/>
<path fill="#006862" opacity="1.000000" stroke="none" 
	d="
M1064.932739,699.708679 
	C1064.548340,698.187500 1064.039307,696.422424 1064.038818,694.657227 
	C1064.000977,576.815186 1064.002808,458.973083 1064.018799,341.131012 
	C1064.019043,339.649658 1064.245850,338.168274 1064.617432,336.361572 
	C1064.942383,336.200928 1065.016724,336.365601 1065.144897,337.187256 
	C1065.334473,350.852112 1065.470459,363.859985 1065.442871,376.989716 
	C1065.393677,377.452423 1065.507935,377.793304 1065.644043,378.593445 
	C1065.648193,423.660614 1065.630493,468.268585 1065.426025,513.057983 
	C1065.360352,513.867859 1065.481445,514.496338 1065.624756,515.584595 
	C1065.653198,558.006531 1065.682373,599.968567 1065.654419,641.930664 
	C1065.642944,659.242676 1065.509155,676.554504 1065.262573,694.048218 
	C1064.954224,694.568604 1064.995483,694.883484 1065.215088,695.556885 
	C1065.237183,696.954285 1065.261963,697.969482 1065.286743,698.984680 
	C1065.206299,699.144714 1065.125732,699.304749 1064.932739,699.708679 
z"/>
<path fill="#F4EEF6" opacity="1.000000" stroke="none" 
	d="
M472.009277,693.983704 
	C471.946533,694.906738 471.883789,695.829773 471.821014,696.752869 
	C471.547760,696.734009 471.274475,696.715210 471.001221,696.696350 
	C471.001221,695.139465 471.001221,693.582642 471.001221,692.025757 
	C471.002258,575.577759 471.002686,459.129730 471.011414,342.681702 
	C471.011536,341.200684 471.112610,339.719421 471.189972,338.239471 
	C471.194122,338.159882 471.471405,337.999969 471.527588,338.033752 
	C471.804657,338.200439 472.049988,338.419861 472.577637,339.238403 
	C472.814117,341.552521 472.779419,343.248901 472.520813,345.273956 
	C472.434082,348.753693 472.571289,351.904755 472.749390,355.415680 
	C472.763336,356.498169 472.736450,357.220856 472.498352,358.232605 
	C472.427979,360.366669 472.568817,362.211578 472.750427,364.416321 
	C472.763000,365.498718 472.734833,366.221313 472.481995,367.293243 
	C472.405701,374.113586 472.554138,380.584564 472.744385,387.415375 
	C472.759521,388.498108 472.732849,389.221008 472.482056,390.291992 
	C472.405640,395.778595 472.553375,400.917175 472.740845,406.369476 
	C472.753052,407.103149 472.725494,407.523041 472.493042,408.188782 
	C472.421112,409.642181 472.554047,410.849731 472.728516,412.475098 
	C472.741455,414.571075 472.712921,416.249268 472.527344,418.033630 
	C472.475250,418.450897 472.580170,418.762024 472.727905,419.519409 
	C472.743011,422.958557 472.715302,425.951508 472.464386,429.290436 
	C472.391266,434.109558 472.541351,438.582703 472.733521,443.442535 
	C472.747620,444.865051 472.719666,445.900879 472.504517,447.106628 
	C472.442474,447.872314 472.567566,448.468048 472.735107,449.492218 
	C472.750305,451.928436 472.723053,453.936279 472.473267,456.284698 
	C472.397064,460.435699 472.543457,464.246124 472.731842,468.443909 
	C472.747498,469.868805 472.721130,470.906372 472.479828,472.259644 
	C472.411041,475.069214 472.557159,477.563080 472.743774,480.493408 
	C472.755524,483.267761 472.726837,485.605713 472.475342,488.287323 
	C472.400024,492.772827 472.547485,496.914673 472.737061,501.510742 
	C472.748932,505.619141 472.718628,509.273315 472.532349,513.033936 
	C472.338562,513.260376 472.235443,513.412537 472.275604,513.494019 
	C472.379089,513.703796 472.545929,513.882263 472.729797,514.500977 
	C472.745880,516.934021 472.719666,518.939331 472.470337,521.293945 
	C472.400757,527.114014 472.554230,532.584778 472.748962,538.518738 
	C472.758209,545.968994 472.726196,552.956116 472.470215,560.293274 
	C472.163788,565.412231 471.952362,570.183105 472.030090,574.949402 
	C472.139374,581.653442 472.463196,588.354065 472.737366,595.519287 
	C472.753998,604.636353 472.728638,613.290283 472.478729,622.292114 
	C472.403168,627.778564 472.552155,632.917236 472.742920,638.510376 
	C472.755157,642.624512 472.725616,646.284119 472.471619,650.292480 
	C472.396973,656.112793 472.546783,661.584290 472.738922,667.461731 
	C472.753082,669.226379 472.724915,670.585205 472.472473,672.293762 
	C472.168518,679.756958 472.088898,686.870300 472.009277,693.983704 
z"/>
<path fill="#F1F3FA" opacity="1.000000" stroke="none" 
	d="
M953.945984,812.446899 
	C954.136475,812.383484 954.326904,812.320129 954.817749,812.278564 
	C955.181274,812.862793 955.244507,813.425232 955.307678,813.987610 
	C953.809021,813.990845 952.310425,813.997009 950.811768,813.997009 
	C831.248962,813.998047 711.686218,814.002319 592.123413,813.965637 
	C590.207031,813.965027 588.290771,813.462463 586.203491,812.863525 
	C639.792419,812.620117 693.552185,812.751709 747.312012,812.782959 
	C813.234253,812.821289 879.156555,812.777405 945.078796,812.759216 
	C947.074524,812.758667 949.070312,812.648560 951.706909,812.631226 
	C952.347839,812.672852 952.797363,812.872498 953.011719,812.875854 
	C953.525024,812.833191 953.764954,812.689148 953.945984,812.446899 
z"/>
<path fill="#F1F3FA" opacity="1.000000" stroke="none" 
	d="
M1065.644531,698.840698 
	C1065.261963,697.969482 1065.237183,696.954285 1065.389404,695.374207 
	C1065.521240,694.495056 1065.476196,694.180725 1065.431030,693.866455 
	C1065.509155,676.554504 1065.642944,659.242676 1065.654419,641.930664 
	C1065.682373,599.968567 1065.653198,558.006531 1065.764771,515.218872 
	C1065.792480,513.887756 1065.702637,513.382141 1065.612793,512.876526 
	C1065.630493,468.268585 1065.648193,423.660614 1065.751953,378.275330 
	C1065.760742,377.287964 1065.683594,377.077942 1065.606323,376.867889 
	C1065.470459,363.859985 1065.334473,350.852112 1065.262329,337.431458 
	C1065.882446,338.917908 1066.923340,340.816589 1066.925293,342.716370 
	C1067.007324,419.344849 1066.995483,495.973389 1066.995483,572.601929 
	C1066.995483,612.748596 1067.008667,652.895325 1066.953003,693.041931 
	C1066.950317,694.927368 1066.333130,696.811890 1065.644531,698.840698 
z"/>
<path fill="#006D67" opacity="1.000000" stroke="none" 
	d="
M588.030823,226.779083 
	C645.453247,226.812912 702.875610,226.862274 760.298035,226.876358 
	C822.881714,226.891724 885.465454,226.874390 948.910522,226.928238 
	C950.858521,226.936295 951.945129,226.887405 953.031677,226.838501 
	C953.031677,226.838501 953.505920,226.989365 953.736816,227.082413 
	C952.201172,227.450287 950.434753,227.965134 948.668213,227.965698 
	C829.841064,228.003387 711.013855,228.000931 592.186707,227.985397 
	C590.702087,227.985214 589.217468,227.771912 587.410828,227.409897 
	C587.088806,227.161728 586.959839,227.044724 587.229248,227.007111 
	C587.676086,226.906036 587.853455,226.842560 588.030823,226.779083 
z"/>
<path fill="#006862" opacity="1.000000" stroke="none" 
	d="
M472.696747,671.943970 
	C472.724915,670.585205 472.753082,669.226379 472.859375,667.003540 
	C472.856995,660.740906 472.776520,655.342285 472.696045,649.943726 
	C472.725616,646.284119 472.755157,642.624512 472.861267,638.052368 
	C472.859619,632.074646 472.781433,627.009399 472.703247,621.944214 
	C472.728638,613.290283 472.753998,604.636353 472.857361,595.060059 
	C472.854980,582.739563 472.774567,571.341370 472.694153,559.943176 
	C472.726196,552.956116 472.758209,545.968994 472.867767,538.060181 
	C472.861359,531.740479 472.777405,526.342529 472.693420,520.944580 
	C472.719666,518.939331 472.745880,516.934021 472.822388,514.214600 
	C472.811249,513.309387 472.749817,513.118469 472.688354,512.927490 
	C472.718628,509.273315 472.748932,505.619141 472.857239,501.056183 
	C472.856262,496.079468 472.777191,492.011566 472.698120,487.943634 
	C472.726837,485.605713 472.755524,483.267761 472.864014,480.054993 
	C472.860809,476.768036 472.777802,474.355988 472.694763,471.943909 
	C472.721130,470.906372 472.747498,469.868805 472.852570,467.991699 
	C472.852814,463.416138 472.774292,459.680115 472.695801,455.944092 
	C472.723053,453.936279 472.750305,451.928436 472.849731,449.143677 
	C472.845184,447.890076 472.768433,447.413361 472.691711,446.936676 
	C472.719666,445.900879 472.747620,444.865051 472.854462,442.987000 
	C472.851410,437.744659 472.769470,433.344543 472.687561,428.944427 
	C472.715302,425.951508 472.743011,422.958557 472.820496,419.232849 
	C472.808289,418.309204 472.746338,418.118347 472.684357,417.927490 
	C472.712921,416.249268 472.741455,414.571075 472.849792,412.074127 
	C472.852356,410.151245 472.775146,409.047119 472.697937,407.942963 
	C472.725494,407.523041 472.753052,407.103149 472.860901,405.911865 
	C472.862823,400.074982 472.784515,395.009430 472.706177,389.943909 
	C472.732849,389.221008 472.759521,388.498108 472.863800,386.956268 
	C472.863129,379.739502 472.784882,373.341705 472.706665,366.943878 
	C472.734833,366.221313 472.763000,365.498718 472.869141,363.990997 
	C472.867920,361.451721 472.788727,359.697632 472.709534,357.943512 
	C472.736450,357.220856 472.763336,356.498169 472.867798,354.968750 
	C472.878510,351.089752 472.811615,348.017548 472.744720,344.945312 
	C472.779419,343.248901 472.814117,341.552521 472.782928,339.436646 
	C472.816345,338.577972 472.915680,338.138794 473.106873,337.372223 
	C473.464630,338.815582 473.962738,340.586273 473.963318,342.357056 
	C474.000763,458.517792 473.999359,574.678528 473.984344,690.839294 
	C473.984161,692.323853 473.765686,693.808472 473.407715,695.623535 
	C473.096741,695.531860 473.027161,695.109741 472.962982,693.906250 
	C472.877838,686.064636 472.787292,679.004333 472.696747,671.943970 
z"/>
<path fill="#A6CFD3" opacity="1.000000" stroke="none" 
	d="
M472.472473,672.293762 
	C472.787292,679.004333 472.877838,686.064636 472.892151,693.592407 
	C472.815857,694.059814 472.411682,694.030457 472.210480,694.007080 
	C472.088898,686.870300 472.168518,679.756958 472.472473,672.293762 
z"/>
<path fill="#BFD6DE" opacity="1.000000" stroke="none" 
	d="
M953.022339,226.632446 
	C951.945129,226.887405 950.858521,226.936295 949.375610,226.880829 
	C950.083130,226.522858 951.186951,226.269226 952.644592,226.014877 
	C952.998413,226.014160 953.013062,226.426407 953.022339,226.632446 
z"/>
<path fill="#F1F3FA" opacity="1.000000" stroke="none" 
	d="
M583.535522,813.482056 
	C583.556580,813.521423 583.514465,813.442688 583.535522,813.482056 
z"/>
<path fill="#BFD6DE" opacity="1.000000" stroke="none" 
	d="
M587.906006,226.606140 
	C587.853455,226.842560 587.676086,226.906036 587.220398,226.920502 
	C586.942078,226.871506 586.992859,226.452881 587.014160,226.243484 
	C587.314880,226.109497 587.563416,226.242538 587.906006,226.606140 
z"/>
<path fill="#FEFEFE" opacity="1.000000" stroke="none" 
	d="
M903.576416,674.292114 
	C905.206116,674.541016 906.836243,674.787292 908.465515,675.039185 
	C916.615967,676.299377 922.353271,682.875977 922.627502,691.862610 
	C922.866211,699.684937 922.890503,707.531067 922.574341,715.349060 
	C922.095642,727.185303 914.346497,735.165649 901.729919,735.121704 
	C814.264404,734.816895 726.797363,734.903198 639.330933,734.998718 
	C629.919861,735.009033 621.924438,732.392151 617.531128,723.801941 
	C613.010132,714.961975 612.239868,705.395508 617.740173,696.617126 
	C627.013123,681.817810 636.737793,667.299683 646.366699,652.725525 
	C702.223450,568.181396 758.103577,483.652710 813.992493,399.129852 
	C817.570251,393.719055 821.287598,388.400543 825.327271,382.535645 
	C826.849854,380.550262 827.985107,379.068298 829.183594,377.503784 
	C825.015686,377.880402 821.396301,378.489258 817.776428,378.492523 
	C758.285339,378.546387 698.794128,378.556885 639.303162,378.446228 
	C635.213440,378.438629 631.125732,377.397034 627.037048,376.836304 
	C619.778503,372.011108 616.441101,365.376648 616.958679,356.550049 
	C617.338501,350.073700 616.982239,343.556427 617.033630,337.058075 
	C617.131714,324.658417 624.948181,316.908539 637.415527,316.906921 
	C724.399719,316.895477 811.387817,317.344788 898.365295,316.579071 
	C918.578613,316.401154 927.393494,338.808624 918.571289,352.291992 
	C909.186951,366.634491 899.722595,380.925079 890.230286,395.196503 
	C833.363403,480.694733 776.495605,566.192383 719.565247,651.648315 
	C715.235229,658.148010 710.418884,664.323730 705.442261,671.238281 
	C702.922791,675.674011 706.396057,674.160400 707.526367,674.161987 
	C772.876343,674.252808 838.226379,674.268799 903.576416,674.292114 
z"/>
<path fill="#006862" opacity="1.000000" stroke="none" 
	d="
M627.192749,377.178833 
	C631.125732,377.397034 635.213440,378.438629 639.303162,378.446228 
	C698.794128,378.556885 758.285339,378.546387 817.776428,378.492523 
	C821.396301,378.489258 825.015686,377.880402 829.183594,377.503784 
	C827.985107,379.068298 826.849854,380.550262 825.409668,382.218384 
	C823.222290,381.602539 821.342041,380.105957 819.457275,380.100372 
	C775.175049,379.968597 730.892456,379.997803 686.609863,379.997559 
	C669.795776,379.997437 652.980164,380.115906 636.169189,379.886322 
	C633.218689,379.846008 630.288147,378.346832 627.192749,377.178833 
z"/>
<path fill="#006862" opacity="1.000000" stroke="none" 
	d="
M903.752319,674.035645 
	C838.226379,674.268799 772.876343,674.252808 707.526367,674.161987 
	C706.396057,674.160400 702.922791,675.674011 705.336914,671.543213 
	C707.903564,671.840759 710.188538,672.925598 712.475098,672.928955 
	C774.625305,673.020752 836.775635,672.995911 898.925964,673.034241 
	C900.593506,673.035278 902.260864,673.519958 903.752319,674.035645 
z"/>
<path fill="#E3E6EA" opacity="1.000000" stroke="none" 
	d="
M953.765625,812.344666 
	C953.764954,812.689148 953.525024,812.833191 953.108521,812.697205 
	C952.990906,812.515259 953.179932,812.155029 953.179932,812.155029 
	C953.179932,812.155029 953.585266,812.242432 953.765625,812.344666 
z"/>
<path fill="#479793" opacity="1.000000" stroke="none" 
	d="
M952.969238,812.074463 
	C953.179932,812.155029 952.990906,812.515259 952.894165,812.693848 
	C952.797363,812.872498 952.347839,812.672852 952.159729,812.514282 
	C952.164368,812.083862 952.426697,811.963318 952.969238,812.074463 
z"/>
<path fill="#5BA7A4" opacity="1.000000" stroke="none" 
	d="
M1065.426025,513.057983 
	C1065.702637,513.382141 1065.792480,513.887756 1065.742432,514.759094 
	C1065.481445,514.496338 1065.360352,513.867859 1065.426025,513.057983 
z"/>
<path fill="#5BA7A4" opacity="1.000000" stroke="none" 
	d="
M1065.262573,694.048218 
	C1065.476196,694.180725 1065.521240,694.495056 1065.392090,694.991943 
	C1064.995483,694.883484 1064.954224,694.568604 1065.262573,694.048218 
z"/>
<path fill="#5BA7A4" opacity="1.000000" stroke="none" 
	d="
M1065.442871,376.989716 
	C1065.683594,377.077942 1065.760742,377.287964 1065.729980,377.816101 
	C1065.507935,377.793304 1065.393677,377.452423 1065.442871,376.989716 
z"/>
<path fill="#A6CFD3" opacity="1.000000" stroke="none" 
	d="
M472.470184,560.293274 
	C472.774567,571.341370 472.854980,582.739563 472.815338,594.596924 
	C472.463196,588.354065 472.139374,581.653442 472.030090,574.949402 
	C471.952362,570.183105 472.163788,565.412231 472.470184,560.293274 
z"/>
<path fill="#A6CFD3" opacity="1.000000" stroke="none" 
	d="
M472.481995,367.293243 
	C472.784882,373.341705 472.863129,379.739502 472.821960,386.596436 
	C472.554138,380.584564 472.405701,374.113586 472.481995,367.293243 
z"/>
<path fill="#A6CFD3" opacity="1.000000" stroke="none" 
	d="
M472.471619,650.292480 
	C472.776520,655.342285 472.856995,660.740906 472.817017,666.597656 
	C472.546783,661.584290 472.396973,656.112793 472.471619,650.292480 
z"/>
<path fill="#A6CFD3" opacity="1.000000" stroke="none" 
	d="
M472.470337,521.293945 
	C472.777405,526.342529 472.861359,531.740479 472.826508,537.596985 
	C472.554230,532.584778 472.400757,527.114014 472.470337,521.293945 
z"/>
<path fill="#A6CFD3" opacity="1.000000" stroke="none" 
	d="
M472.482056,390.291992 
	C472.784515,395.009430 472.862823,400.074982 472.821106,405.598114 
	C472.553375,400.917175 472.405640,395.778595 472.482056,390.291992 
z"/>
<path fill="#A6CFD3" opacity="1.000000" stroke="none" 
	d="
M472.478729,622.292114 
	C472.781433,627.009399 472.859619,632.074646 472.819458,637.597839 
	C472.552155,632.917236 472.403168,627.778564 472.478729,622.292114 
z"/>
<path fill="#A6CFD3" opacity="1.000000" stroke="none" 
	d="
M472.464386,429.290436 
	C472.769470,433.344543 472.851410,437.744659 472.812378,442.600281 
	C472.541351,438.582703 472.391266,434.109558 472.464386,429.290436 
z"/>
<path fill="#A6CFD3" opacity="1.000000" stroke="none" 
	d="
M472.475342,488.287323 
	C472.777191,492.011566 472.856262,496.079468 472.815125,500.601929 
	C472.547485,496.914673 472.400024,492.772827 472.475342,488.287323 
z"/>
<path fill="#A6CFD3" opacity="1.000000" stroke="none" 
	d="
M472.473236,456.284698 
	C472.774292,459.680115 472.852814,463.416138 472.810577,467.604340 
	C472.543457,464.246124 472.397064,460.435699 472.473236,456.284698 
z"/>
<path fill="#A6CFD3" opacity="1.000000" stroke="none" 
	d="
M472.520813,345.273956 
	C472.811615,348.017548 472.878510,351.089752 472.826965,354.608917 
	C472.571289,351.904755 472.434082,348.753693 472.520813,345.273956 
z"/>
<path fill="#A6CFD3" opacity="1.000000" stroke="none" 
	d="
M472.479858,472.259644 
	C472.777802,474.355988 472.860809,476.768036 472.823578,479.618530 
	C472.557159,477.563080 472.411041,475.069214 472.479858,472.259644 
z"/>
<path fill="#A6CFD3" opacity="1.000000" stroke="none" 
	d="
M472.498352,358.232605 
	C472.788727,359.697632 472.867920,361.451721 472.828369,363.631165 
	C472.568817,362.211578 472.427979,360.366669 472.498352,358.232605 
z"/>
<path fill="#A6CFD3" opacity="1.000000" stroke="none" 
	d="
M472.493042,408.188782 
	C472.775146,409.047119 472.852356,410.151245 472.808289,411.656372 
	C472.554047,410.849731 472.421112,409.642181 472.493042,408.188782 
z"/>
<path fill="#A6CFD3" opacity="1.000000" stroke="none" 
	d="
M472.504517,447.106628 
	C472.768433,447.413361 472.845184,447.890076 472.807281,448.715271 
	C472.567566,448.468048 472.442474,447.872314 472.504517,447.106628 
z"/>
<path fill="#A6CFD3" opacity="1.000000" stroke="none" 
	d="
M472.527344,418.033630 
	C472.746338,418.118347 472.808289,418.309204 472.777649,418.786621 
	C472.580170,418.762024 472.475250,418.450897 472.527344,418.033630 
z"/>
<path fill="#A6CFD3" opacity="1.000000" stroke="none" 
	d="
M472.532379,513.033936 
	C472.749817,513.118469 472.811249,513.309387 472.780060,513.786804 
	C472.545929,513.882263 472.379089,513.703796 472.275604,513.494019 
	C472.235443,513.412537 472.338562,513.260376 472.532379,513.033936 
z"/>
</svg>